<?xml version="1.0" encoding="UTF-8"?>
<svg width="841px" height="120px" viewBox="0 0 841 120" version="1.1" xmlns="http://www.w3.org/2000/svg" xmlns:xlink="http://www.w3.org/1999/xlink">
    <!-- Generator: Sketch 50.2 (55047) - http://www.bohemiancoding.com/sketch -->
    <title>bigger hash</title>
    <desc>Created with Sketch.</desc>
    <defs></defs>
    <g id="mono" stroke="none" stroke-width="1" fill="none" fill-rule="evenodd">
        <g id="bigger-hash" transform="translate(-59.000000, -108.000000)">
            <path d="M438.129954,188.252682 C435.364907,192.565774 431.580599,195.999789 426.776917,198.554827 C421.973234,201.109866 416.267482,202.387366 409.659489,202.387366 C404.551182,202.387366 399.864733,201.543513 395.6,199.855781 C391.335267,198.168049 387.691553,195.812292 384.668747,192.788439 C381.645942,189.764586 379.291001,186.166489 377.603854,181.994041 C375.916707,177.821592 375.073146,173.180399 375.073146,168.070322 C375.073146,163.100889 375.84641,158.494856 377.392962,154.252086 C378.939513,150.009315 381.142145,146.376058 384.000922,143.352205 C386.859699,140.328352 390.36282,137.960875 394.51039,136.249702 C398.65796,134.538529 403.262396,133.682956 408.323837,133.682956 C410.339041,133.682956 412.401079,133.91736 414.510013,134.386174 C416.618946,134.854988 418.610687,135.56992 420.485295,136.530989 C422.359903,137.492059 424.047025,138.640637 425.546711,139.976758 C427.046398,141.312879 428.171146,142.895104 428.920989,144.72348 L428.920989,135.230036 L437.567574,135.230036 L437.567574,161.460072 L428.920989,161.460072 C428.920989,158.553422 428.393763,155.90466 427.339296,153.513707 C426.284829,151.122753 424.843746,149.060001 423.016003,147.325387 C421.188261,145.590774 419.009062,144.242953 416.478341,143.281883 C413.94762,142.320814 411.22948,141.840286 408.323837,141.840286 C404.387161,141.840286 400.954337,142.520057 398.025262,143.879619 C395.096187,145.23918 392.647517,147.09097 390.679179,149.435042 C388.710841,151.779114 387.222893,154.533357 386.215291,157.697855 C385.207689,160.862352 384.703896,164.319806 384.703896,168.070322 C384.703896,171.820837 385.277986,175.278292 386.426183,178.442789 C387.574381,181.607286 389.23807,184.338089 391.417302,186.63528 C393.596534,188.932471 396.220945,190.76082 399.290616,192.120381 C402.360286,193.479943 405.816543,194.159714 409.659489,194.159714 C414.533469,194.159714 418.868435,193.198659 422.664516,191.27652 C426.460597,189.354381 429.366196,186.79938 431.381399,183.611442 L438.129954,188.252682 Z M453.525094,183.048868 C453.525094,178.923301 454.556113,175.465846 456.618182,172.6764 C458.680251,169.886955 461.386675,167.68356 464.737537,166.06615 C468.088398,164.44874 471.931287,163.276722 476.266318,162.55006 C480.601348,161.823397 485.018327,161.460072 489.517386,161.460072 C491.251398,161.460072 492.809643,161.483512 494.192166,161.530393 C495.574689,161.577275 496.886895,161.647596 498.128823,161.741359 C499.370751,161.835122 500.624376,161.952323 501.889736,162.092968 C503.155096,162.233612 504.537599,162.397695 506.037285,162.585221 L506.037285,157.873659 C506.037285,154.685721 505.346034,152.0604 503.963511,149.997616 C502.580987,147.934833 500.882149,146.305727 498.866946,145.11025 C496.851742,143.914774 494.74284,143.07092 492.540176,142.578665 C490.337512,142.08641 488.462932,141.840286 486.91638,141.840286 C482.0424,141.840286 477.543408,142.496616 473.419271,143.809297 C469.295134,145.121977 465.452245,146.880005 461.89049,149.083433 L457.532049,141.840286 C461.468725,139.449333 465.885704,137.492062 470.783117,135.968415 C475.68053,134.444768 481.058231,133.682956 486.91638,133.682956 C490.478135,133.682956 493.981256,134.140043 497.425848,135.054231 C500.87044,135.968419 503.963497,137.374842 506.705111,139.27354 C509.446725,141.172238 511.63764,143.668638 513.277922,146.762813 C514.918204,149.856988 515.738333,153.560566 515.738333,157.873659 L515.738333,200.769964 L506.037285,200.769964 L506.037285,189.799762 C504.350138,191.909427 502.44041,193.761216 500.308044,195.355185 C498.175677,196.949154 495.937897,198.250094 493.594638,199.258045 C491.251378,200.265996 488.908153,201.039528 486.564893,201.578665 C484.221633,202.117802 481.99557,202.387366 479.886636,202.387366 C471.216574,202.387366 464.655545,200.7231 460.203351,197.394517 C455.751158,194.065935 453.525094,189.2841 453.525094,183.048868 Z M479.886636,194.159714 C483.917043,194.159714 487.537325,193.561985 490.747591,192.366508 C493.957857,191.171031 496.687714,189.682568 498.937243,187.901073 C501.186773,186.119578 502.932475,184.220908 504.174403,182.205006 C505.416331,180.189104 506.037285,178.360755 506.037285,176.719905 L506.037285,170.531585 C502.897317,170.062771 499.886273,169.804927 497.004064,169.758045 C494.121854,169.711164 491.62632,169.687723 489.517386,169.687723 C486.049361,169.687723 482.710266,169.922127 479.5,170.390942 C476.289734,170.859756 473.48958,171.621568 471.099455,172.6764 C468.70933,173.731233 466.787886,175.102495 465.335065,176.790226 C463.882244,178.477958 463.155844,180.564151 463.155844,183.048868 C463.155844,185.814873 464.503198,188.358153 467.197947,190.678784 C469.892696,192.999416 474.122217,194.159714 479.886636,194.159714 Z M597.77545,168.070322 C597.77545,173.180399 596.978754,177.821592 595.385337,181.994041 C593.791921,186.166489 591.554141,189.764586 588.671931,192.788439 C585.789722,195.812292 582.310033,198.168049 578.232761,199.855781 C574.155489,201.543513 569.5862,202.387366 564.524759,202.387366 C561.056735,202.387366 557.694207,201.754476 554.437076,200.488677 C551.179945,199.222878 548.145469,197.347648 545.333557,194.862932 L545.333557,227 L535.702807,227 L535.702807,135.230036 L545.333557,135.230036 L545.333557,141.277712 C551.285437,136.214516 557.68244,133.682956 564.524759,133.682956 C569.5862,133.682956 574.155489,134.515089 578.232761,136.17938 C582.310033,137.843671 585.789722,140.211149 588.671931,143.281883 C591.554141,146.352618 593.791921,150.009315 595.385337,154.252086 C596.978754,158.494856 597.77545,163.100889 597.77545,168.070322 Z M588.1447,168.070322 C588.1447,164.413569 587.640907,160.979555 586.633305,157.768176 C585.625704,154.556798 584.114324,151.779114 582.09912,149.435042 C580.083917,147.09097 577.611815,145.23918 574.68274,143.879619 C571.753665,142.520057 568.367705,141.840286 564.524759,141.840286 C560.869274,141.840286 557.459882,142.520057 554.296481,143.879619 C551.13308,145.23918 548.145469,147.442575 545.333557,150.489869 L545.333557,185.650775 C548.145469,188.698068 551.13308,190.878023 554.296481,192.190703 C557.459882,193.503384 560.869274,194.159714 564.524759,194.159714 C568.367705,194.159714 571.753665,193.479943 574.68274,192.120381 C577.611815,190.76082 580.083917,188.90903 582.09912,186.564958 C584.114324,184.220886 585.625704,181.466643 586.633305,178.302145 C587.640907,175.137648 588.1447,171.727074 588.1447,168.070322 Z M650.147047,122.150179 L637.071722,122.150179 L637.071722,109 L650.147047,109 L650.147047,122.150179 Z M663.222371,200.769964 L623.9261,200.769964 L623.9261,192.542312 L638.75886,192.542312 L638.75886,143.457688 L623.9261,143.457688 L623.9261,135.230036 L648.459908,135.230036 L648.459908,192.542312 L663.222371,192.542312 L663.222371,200.769964 Z M755.663511,179.884386 C754.913668,186.775958 752.207243,192.249284 747.544156,196.304529 C742.881069,200.359774 737.058155,202.387366 730.075241,202.387366 C726.232295,202.387366 722.717458,201.754476 719.530624,200.488677 C716.343791,199.222878 713.62565,197.46485 711.376121,195.214541 C709.126591,192.964232 707.380889,190.256869 706.138961,187.092372 C704.897033,183.927875 704.276079,180.47042 704.276079,176.719905 L704.276079,143.457688 L689.443318,143.457688 L689.443318,135.230036 L704.276079,135.230036 L704.276079,109 L713.906829,109 L713.906829,135.230036 L741.814914,135.230036 L741.814914,143.457688 L713.906829,143.457688 L713.906829,176.719905 C713.906829,179.110858 714.293461,181.361134 715.066736,183.470799 C715.840012,185.580463 716.917896,187.432253 718.300419,189.026222 C719.682942,190.620191 721.358348,191.87425 723.326686,192.788439 C725.295025,193.702627 727.54452,194.159714 730.075241,194.159714 C734.855491,194.159714 738.850689,192.67125 742.060955,189.694279 C745.271221,186.717307 747.110653,182.861367 747.579305,178.126341 L755.663511,179.884386 Z M767.895266,183.048868 C767.895266,178.923301 768.926285,175.465846 770.988354,172.6764 C773.050422,169.886955 775.756847,167.68356 779.107708,166.06615 C782.45857,164.44874 786.301459,163.276722 790.636489,162.55006 C794.97152,161.823397 799.388499,161.460072 803.887558,161.460072 C805.62157,161.460072 807.179814,161.483512 808.562338,161.530393 C809.944861,161.577275 811.257067,161.647596 812.498995,161.741359 C813.740922,161.835122 814.994548,161.952323 816.259908,162.092968 C817.525268,162.233612 818.907771,162.397695 820.407457,162.585221 L820.407457,157.873659 C820.407457,154.685721 819.716206,152.0604 818.333682,149.997616 C816.951159,147.934833 815.252321,146.305727 813.237118,145.11025 C811.221914,143.914774 809.113012,143.07092 806.910348,142.578665 C804.707683,142.08641 802.833104,141.840286 801.286552,141.840286 C796.412572,141.840286 791.91358,142.496616 787.789443,143.809297 C783.665305,145.121977 779.822417,146.880005 776.260662,149.083433 L771.90222,141.840286 C775.838897,139.449333 780.255876,137.492062 785.153289,135.968415 C790.050702,134.444768 795.428402,133.682956 801.286552,133.682956 C804.848307,133.682956 808.351428,134.140043 811.79602,135.054231 C815.240612,135.968419 818.333669,137.374842 821.075283,139.27354 C823.816897,141.172238 826.007812,143.668638 827.648094,146.762813 C829.288376,149.856988 830.108504,153.560566 830.108504,157.873659 L830.108504,200.769964 L820.407457,200.769964 L820.407457,189.799762 C818.72031,191.909427 816.810582,193.761216 814.678215,195.355185 C812.545849,196.949154 810.308069,198.250094 807.964809,199.258045 C805.62155,200.265996 803.278325,201.039528 800.935065,201.578665 C798.591805,202.117802 796.365742,202.387366 794.256808,202.387366 C785.586746,202.387366 779.025717,200.7231 774.573523,197.394517 C770.12133,194.065935 767.895266,189.2841 767.895266,183.048868 Z M794.256808,194.159714 C798.287215,194.159714 801.907497,193.561985 805.117763,192.366508 C808.328029,191.171031 811.057886,189.682568 813.307415,187.901073 C815.556945,186.119578 817.302647,184.220908 818.544575,182.205006 C819.786503,180.189104 820.407457,178.360755 820.407457,176.719905 L820.407457,170.531585 C817.267489,170.062771 814.256445,169.804927 811.374235,169.758045 C808.492026,169.711164 805.996491,169.687723 803.887558,169.687723 C800.419533,169.687723 797.080438,169.922127 793.870172,170.390942 C790.659906,170.859756 787.859752,171.621568 785.469627,172.6764 C783.079502,173.731233 781.158058,175.102495 779.705237,176.790226 C778.252416,178.477958 777.526016,180.564151 777.526016,183.048868 C777.526016,185.814873 778.87337,188.358153 781.568119,190.678784 C784.262868,192.999416 788.492388,194.159714 794.256808,194.159714 Z M899,200.769964 L859.703729,200.769964 L859.703729,192.542312 L874.536489,192.542312 L874.536489,117.227652 L859.703729,117.227652 L859.703729,109 L884.237537,109 L884.237537,192.542312 L899,192.542312 L899,200.769964 Z" id="capital" fill="#293241"></path>
            <g id="sha" transform="translate(60.000000, 109.000000)">
                <path d="M64.4627566,73.6269368 C64.4627566,77.4712151 63.5020345,80.6591053 61.5805614,83.1907032 C59.6590883,85.7223011 57.1869862,87.7381729 54.164181,89.238379 C51.1413758,90.7385852 47.7671322,91.805122 44.041349,92.4380215 C40.3155658,93.0709209 36.6718514,93.3873659 33.1100964,93.3873659 C27.1582163,93.3873659 21.2298578,92.5200722 15.3248429,90.7854589 C9.41982804,89.0508455 4.31159815,86.7771297 0,83.9642431 L4.28814411,75.6662694 C9.11525944,78.7135631 13.8720056,81.0576001 18.5585253,82.6984505 C23.2450451,84.339301 28.0955202,85.1597139 33.1100964,85.1597139 C47.5914423,85.1597139 54.8320067,81.4092548 54.8320067,73.9082241 C54.8320067,72.0798478 54.2344844,70.5913844 53.0394219,69.442789 C51.8443593,68.2941937 50.2392504,67.3565789 48.2240469,66.6299166 C46.2088434,65.9032542 43.9007671,65.3289652 41.2997486,64.9070322 C38.6987302,64.4850992 35.9688734,64.0866129 33.1100964,63.7115614 C29.454611,63.1958655 25.8226127,62.5864159 22.2139925,61.8831943 C18.6053723,61.1799726 15.3131415,60.125156 12.3372015,58.7187128 C9.36126148,57.3122695 6.97117227,55.4370399 5.16686217,53.0929678 C3.36255207,50.7488957 2.46041056,47.6547669 2.46041056,43.8104887 C2.46041056,40.5287877 3.29225533,37.692503 4.95596984,35.3015495 C6.61968434,32.9105959 8.84574782,30.9181645 11.6342271,29.3241955 C14.4227063,27.7302264 17.6915048,26.558208 21.4407206,25.8081049 C25.1899364,25.0580018 29.0796894,24.6829559 33.1100964,24.6829559 C38.8745156,24.6829559 44.02961,25.3510064 48.5755341,26.6871275 C53.1214583,28.0232486 57.2221015,29.9336387 60.8775869,32.4183552 L57.0112275,39.942789 C53.2620117,37.3174283 49.4659877,35.4773593 45.6230415,34.4225268 C41.7800953,33.3676944 37.6091553,32.8402861 33.1100964,32.8402861 C31.0948929,32.8402861 28.8571133,33.0160888 26.3966904,33.3676996 C23.9362675,33.7193105 21.6516234,34.3287601 19.5426896,35.1960667 C17.4337557,36.0633734 15.664621,37.1885112 14.2352325,38.5715137 C12.805844,39.9545163 12.0911605,41.7008238 12.0911605,43.8104887 C12.0911605,45.6388649 12.6886828,47.103888 13.8837453,48.2056019 C15.0788078,49.3073158 16.6839167,50.2214902 18.6991202,50.9481526 C20.7143237,51.6748149 23.0224001,52.249104 25.6234185,52.6710369 C28.224437,53.0929699 30.9542938,53.4914562 33.8130708,53.8665077 C37.3748258,54.3822036 40.9716757,54.9916532 44.6037285,55.6948749 C48.2357813,56.3980965 51.5397282,57.4294727 54.5156682,58.7890346 C57.4916082,60.1485964 59.8934136,62.0003856 61.7211563,64.3444577 C63.548899,66.6885298 64.4627566,69.7826586 64.4627566,73.6269368 Z" id="Path" fill="#3D5A80"></path>
                <path d="M141.368161,91.7699642 L131.667114,91.7699642 L131.667114,51.3349225 C131.667114,45.4747423 130.401772,40.9273106 127.871052,37.6924911 C125.340331,34.4576715 121.239688,32.8402861 115.568999,32.8402861 C112.007244,32.8402861 108.78531,33.660699 105.9031,35.3015495 C103.02089,36.9423999 100.572221,39.1340745 98.5570172,41.8766389 C96.5418137,44.6192032 95.0070015,47.7602127 93.9525346,51.2997616 C92.8980676,54.8393105 92.3708421,58.5311687 92.3708421,62.375447 L92.3708421,91.7699642 L82.7400922,91.7699642 L82.7400922,0 L92.3708421,0 L92.3708421,42.6853397 C97.0104966,30.6836905 105.28208,24.6829559 117.18584,24.6829559 C133.307468,24.6829559 141.368161,33.5668559 141.368161,51.3349225 L141.368161,91.7699642 Z" id="Path" fill="#3D5A80"></path>
                <path d="M157.747465,74.0488677 C157.747465,69.9233008 158.778484,66.4658463 160.840553,63.6764005 C162.902622,60.8869547 165.609046,58.6835599 168.959908,57.0661502 C172.310769,55.4487404 176.153658,54.2767219 180.488689,53.5500596 C184.823719,52.8233972 189.240698,52.4600715 193.739757,52.4600715 C195.473769,52.4600715 197.032014,52.4835119 198.414537,52.5303933 C199.79706,52.5772748 201.109266,52.6475959 202.351194,52.7413588 C203.593122,52.8351216 204.846747,52.9523235 206.112107,53.0929678 C207.377468,53.2336121 208.75997,53.3976947 210.259656,53.5852205 L210.259656,48.8736591 C210.259656,45.685721 209.568405,43.0603997 208.185882,40.9976162 C206.803359,38.9348328 205.104521,37.3057271 203.089317,36.1102503 C201.074114,34.9147735 198.965211,34.0709202 196.762547,33.5786651 C194.559883,33.0864099 192.685303,32.8402861 191.138752,32.8402861 C186.264771,32.8402861 181.76578,33.4966164 177.641642,34.8092968 C173.517505,36.1219772 169.674616,37.8800049 166.112861,40.0834327 L161.75442,32.8402861 C165.691096,30.4493325 170.108075,28.4920617 175.005488,26.9684148 C179.902901,25.4447679 185.280602,24.6829559 191.138752,24.6829559 C194.700507,24.6829559 198.203628,25.1400431 201.64822,26.0542312 C205.092812,26.9684194 208.185868,28.3748415 210.927482,30.2735399 C213.669096,32.1722383 215.860011,34.6686377 217.500293,37.7628129 C219.140575,40.8569881 219.960704,44.5605664 219.960704,48.8736591 L219.960704,91.7699642 L210.259656,91.7699642 L210.259656,80.7997616 C208.572509,82.9094265 206.662781,84.7612157 204.530415,86.3551847 C202.398048,87.9491538 200.160269,89.2500943 197.817009,90.2580453 C195.473749,91.2659963 193.130524,92.0395285 190.787264,92.5786651 C188.444004,93.1178017 186.217941,93.3873659 184.109007,93.3873659 C175.438946,93.3873659 168.877916,91.7230997 164.425723,88.3945173 C159.973529,85.0659349 157.747465,80.2840995 157.747465,74.0488677 Z" id="Path" fill="#3D5A80"></path>
                <path d="M184.109007,85.1597139 C188.139414,85.1597139 191.759696,84.5619845 194.969962,83.3665077 C198.180228,82.171031 200.910085,80.6825675 203.159615,78.9010727 C205.409144,77.1195779 207.154846,75.220908 208.396774,73.205006 C209.638702,71.1891039 210.259656,69.3607551 210.259656,67.7199046 L210.259656,61.5315852 C207.119688,61.0627708 204.108644,60.8049267 201.226435,60.7580453 C198.344225,60.7111638 195.848691,60.6877235 193.739757,60.6877235 C190.271732,60.6877235 186.932637,60.9221272 183.722371,61.3909416 C180.512105,61.859756 177.711952,62.621568 175.321827,63.6764005 C172.931701,64.7312329 171.010257,66.1024945 169.557436,67.7902265 C168.104615,69.4779584 167.378215,71.5641513 167.378215,74.0488677 C167.378215,76.8148728 168.72557,79.3581529 171.420318,81.6787843 C174.115067,83.9994157 178.344588,85.1597139 184.109007,85.1597139 Z" id="Path" fill="#FFFFFF"></path>
            </g>
            <g id="hash" transform="translate(311.000000, 152.000000)" stroke-linecap="square" stroke-width="9">
                <path d="M16.5,7 L16.5,40" id="Line" stroke="#98C1D9" transform="translate(16.500000, 23.500000) rotate(90.000000) translate(-16.500000, -23.500000) "></path>
                <path d="M9.5,0 L9.5,33" id="Line" stroke="#3D5A80"></path>
                <path d="M16.5,-7 L16.5,26" id="Line" stroke="#DDD7F8" transform="translate(16.500000, 9.500000) rotate(90.000000) translate(-16.500000, -9.500000) "></path>
                <path d="M24.5,0 L24.5,33" id="Line" stroke="#293241"></path>
                <path d="M26.5,17 L26.5,29.1875" id="Line" stroke="#98C1D9" transform="translate(26.500000, 23.500000) rotate(90.000000) translate(-26.500000, -23.500000) "></path>
            </g>
        </g>
    </g>
</svg>