<?xml version="1.0" encoding="UTF-8"?>
<svg width="839px" height="118px" viewBox="0 0 839 118" version="1.1" xmlns="http://www.w3.org/2000/svg" xmlns:xlink="http://www.w3.org/1999/xlink">
    <!-- Generator: Sketch 50.2 (55047) - http://www.bohemiancoding.com/sketch -->
    <title>logo</title>
    <desc>Created with Sketch.</desc>
    <defs></defs>
    <g id="logo" stroke="none" stroke-width="1" fill="none" fill-rule="evenodd">
        <g id="Logo" transform="translate(1.000000, 1.000000)">
            <g>
                <path d="M378.056808,79.2526818 C375.291761,83.5657744 371.507453,86.9997886 366.70377,89.5548272 C361.900088,92.1098658 356.194336,93.3873659 349.586343,93.3873659 C344.478036,93.3873659 339.791587,92.5435126 335.526854,90.8557807 C331.262121,89.1680488 327.618406,86.8122916 324.595601,83.7884386 C321.572796,80.7645856 319.217855,77.1664889 317.530708,72.9940405 C315.843561,68.8215922 315,64.180399 315,59.0703218 C315,54.1008889 315.773264,49.4948563 317.319816,45.2520858 C318.866367,41.0093153 321.068998,37.376058 323.927775,34.352205 C326.786552,31.328352 330.289673,28.9608747 334.437243,27.249702 C338.584813,25.5385294 343.18925,24.6829559 348.250691,24.6829559 C350.265895,24.6829559 352.327932,24.9173596 354.436866,25.386174 C356.5458,25.8549884 358.537541,26.5699197 360.412149,27.5309893 C362.286757,28.4920588 363.973879,29.6406369 365.473565,30.976758 C366.973251,32.3128791 368.097999,33.8951041 368.847842,35.7234803 L368.847842,26.2300358 L377.494428,26.2300358 L377.494428,52.4600715 L368.847842,52.4600715 C368.847842,49.5534221 368.320617,46.9046603 367.26615,44.5137068 C366.211683,42.1227532 364.7706,40.0600007 362.942857,38.3253874 C361.115114,36.590774 358.935915,35.2429528 356.405195,34.2818832 C353.874474,33.3208136 351.156333,32.8402861 348.250691,32.8402861 C344.314015,32.8402861 340.88119,33.5200568 337.952116,34.8796186 C335.023041,36.2391804 332.574371,38.0909696 330.606033,40.4350417 C328.637694,42.7791138 327.149747,45.5333572 326.142145,48.6978546 C325.134543,51.8623519 324.63075,55.3198064 324.63075,59.0703218 C324.63075,62.8208372 325.20484,66.2782917 326.353037,69.442789 C327.501235,72.6072864 329.164924,75.3380894 331.344156,77.6352801 C333.523388,79.9324708 336.147799,81.7608196 339.21747,83.1203814 C342.28714,84.4799432 345.743397,85.1597139 349.586343,85.1597139 C354.460323,85.1597139 358.795289,84.1986588 362.59137,82.2765197 C366.387451,80.3543805 369.29305,77.7993803 371.308253,74.6114422 L378.056808,79.2526818 Z M393.451948,74.0488677 C393.451948,69.9233008 394.482967,66.4658463 396.545036,63.6764005 C398.607104,60.8869547 401.313529,58.6835599 404.66439,57.0661502 C408.015252,55.4487404 411.858141,54.2767219 416.193171,53.5500596 C420.528202,52.8233972 424.945181,52.4600715 429.44424,52.4600715 C431.178252,52.4600715 432.736496,52.4835119 434.11902,52.5303933 C435.501543,52.5772748 436.813749,52.6475959 438.055677,52.7413588 C439.297604,52.8351216 440.55123,52.9523235 441.81659,53.0929678 C443.08195,53.2336121 444.464453,53.3976947 445.964139,53.5852205 L445.964139,48.8736591 C445.964139,45.685721 445.272888,43.0603997 443.890364,40.9976162 C442.507841,38.9348328 440.809003,37.3057271 438.7938,36.1102503 C436.778596,34.9147735 434.669694,34.0709202 432.46703,33.5786651 C430.264365,33.0864099 428.389786,32.8402861 426.843234,32.8402861 C421.969254,32.8402861 417.470262,33.4966164 413.346125,34.8092968 C409.221987,36.1219772 405.379099,37.8800049 401.817344,40.0834327 L397.458902,32.8402861 C401.395579,30.4493325 405.812558,28.4920617 410.709971,26.9684148 C415.607384,25.4447679 420.985085,24.6829559 426.843234,24.6829559 C430.404989,24.6829559 433.90811,25.1400431 437.352702,26.0542312 C440.797294,26.9684194 443.890351,28.3748415 446.631965,30.2735399 C449.373579,32.1722383 451.564494,34.6686377 453.204776,37.7628129 C454.845058,40.8569881 455.665186,44.5605664 455.665186,48.8736591 L455.665186,91.7699642 L445.964139,91.7699642 L445.964139,80.7997616 C444.276992,82.9094265 442.367264,84.7612157 440.234897,86.3551847 C438.102531,87.9491538 435.864751,89.2500943 433.521491,90.2580453 C431.178232,91.2659963 428.835007,92.0395285 426.491747,92.5786651 C424.148487,93.1178017 421.922424,93.3873659 419.81349,93.3873659 C411.143428,93.3873659 404.582399,91.7230997 400.130205,88.3945173 C395.678012,85.0659349 393.451948,80.2840995 393.451948,74.0488677 Z M419.81349,85.1597139 C423.843897,85.1597139 427.464179,84.5619845 430.674445,83.3665077 C433.884711,82.171031 436.614568,80.6825675 438.864097,78.9010727 C441.113627,77.1195779 442.859329,75.220908 444.101257,73.205006 C445.343185,71.1891039 445.964139,69.3607551 445.964139,67.7199046 L445.964139,61.5315852 C442.824171,61.0627708 439.813127,60.8049267 436.930917,60.7580453 C434.048708,60.7111638 431.553174,60.6877235 429.44424,60.6877235 C425.976215,60.6877235 422.63712,60.9221272 419.426854,61.3909416 C416.216588,61.859756 413.416434,62.621568 411.026309,63.6764005 C408.636184,64.7312329 406.71474,66.1024945 405.261919,67.7902265 C403.809098,69.4779584 403.082698,71.5641513 403.082698,74.0488677 C403.082698,76.8148728 404.430052,79.3581529 407.124801,81.6787843 C409.81955,83.9994157 414.04907,85.1597139 419.81349,85.1597139 Z M537.702304,59.0703218 C537.702304,64.180399 536.905608,68.8215922 535.312191,72.9940405 C533.718774,77.1664889 531.480995,80.7645856 528.598785,83.7884386 C525.716575,86.8122916 522.236887,89.1680488 518.159615,90.8557807 C514.082342,92.5435126 509.513054,93.3873659 504.451613,93.3873659 C500.983588,93.3873659 497.621061,92.7544759 494.36393,91.488677 C491.106798,90.2228781 488.072322,88.3476485 485.260411,85.8629321 L485.260411,118 L475.629661,118 L475.629661,26.2300358 L485.260411,26.2300358 L485.260411,32.2777116 C491.212291,27.2145158 497.609294,24.6829559 504.451613,24.6829559 C509.513054,24.6829559 514.082342,25.515089 518.159615,27.1793802 C522.236887,28.8436714 525.716575,31.2111487 528.598785,34.2818832 C531.480995,37.3526177 533.718774,41.0093153 535.312191,45.2520858 C536.905608,49.4948563 537.702304,54.1008889 537.702304,59.0703218 Z M528.071554,59.0703218 C528.071554,55.4135693 527.567761,51.9795552 526.560159,48.7681764 C525.552557,45.5567976 524.041178,42.7791138 522.025974,40.4350417 C520.010771,38.0909696 517.538668,36.2391804 514.609594,34.8796186 C511.680519,33.5200568 508.294559,32.8402861 504.451613,32.8402861 C500.796128,32.8402861 497.386736,33.5200568 494.223335,34.8796186 C491.059934,36.2391804 488.072322,38.4425751 485.260411,41.4898689 L485.260411,76.6507747 C488.072322,79.6980685 491.059934,81.8780228 494.223335,83.1907032 C497.386736,84.5033836 500.796128,85.1597139 504.451613,85.1597139 C508.294559,85.1597139 511.680519,84.4799432 514.609594,83.1203814 C517.538668,81.7608196 520.010771,79.9090304 522.025974,77.5649583 C524.041178,75.2208862 525.552557,72.4666428 526.560159,69.3021454 C527.567761,66.1376481 528.071554,62.7270743 528.071554,59.0703218 Z M590.0739,13.1501788 L576.998576,13.1501788 L576.998576,0 L590.0739,0 L590.0739,13.1501788 Z M603.149225,91.7699642 L563.852953,91.7699642 L563.852953,83.5423123 L578.685714,83.5423123 L578.685714,34.4576877 L563.852953,34.4576877 L563.852953,26.2300358 L588.386762,26.2300358 L588.386762,83.5423123 L603.149225,83.5423123 L603.149225,91.7699642 Z M695.590364,70.8843862 C694.840521,77.7759582 692.134097,83.2492845 687.47101,87.3045292 C682.807923,91.359774 676.985009,93.3873659 670.002095,93.3873659 C666.159148,93.3873659 662.644311,92.7544759 659.457478,91.488677 C656.270645,90.2228781 653.552504,88.4648503 651.302974,86.2145411 C649.053445,83.9642319 647.307743,81.2568692 646.065815,78.0923719 C644.823887,74.9278745 644.202933,71.47042 644.202933,67.7199046 L644.202933,34.4576877 L629.370172,34.4576877 L629.370172,26.2300358 L644.202933,26.2300358 L644.202933,0 L653.833682,0 L653.833682,26.2300358 L681.741768,26.2300358 L681.741768,34.4576877 L653.833682,34.4576877 L653.833682,67.7199046 C653.833682,70.1108582 654.220315,72.3611337 654.99359,74.4707986 C655.766866,76.5804635 656.844749,78.4322527 658.227273,80.0262217 C659.609796,81.6201907 661.285202,82.8742505 663.25354,83.7884386 C665.221878,84.7026267 667.471374,85.1597139 670.002095,85.1597139 C674.782345,85.1597139 678.777543,83.6712505 681.987809,80.6942789 C685.198075,77.7173073 687.037506,73.8613665 687.506158,69.1263409 L695.590364,70.8843862 Z M707.82212,74.0488677 C707.82212,69.9233008 708.853139,66.4658463 710.915207,63.6764005 C712.977276,60.8869547 715.683701,58.6835599 719.034562,57.0661502 C722.385424,55.4487404 726.228312,54.2767219 730.563343,53.5500596 C734.898374,52.8233972 739.315352,52.4600715 743.814411,52.4600715 C745.548424,52.4600715 747.106668,52.4835119 748.489191,52.5303933 C749.871715,52.5772748 751.183921,52.6475959 752.425848,52.7413588 C753.667776,52.8351216 754.921401,52.9523235 756.186762,53.0929678 C757.452122,53.2336121 758.834625,53.3976947 760.334311,53.5852205 L760.334311,48.8736591 C760.334311,45.685721 759.64306,43.0603997 758.260536,40.9976162 C756.878013,38.9348328 755.179175,37.3057271 753.163972,36.1102503 C751.148768,34.9147735 749.039866,34.0709202 746.837202,33.5786651 C744.634537,33.0864099 742.759957,32.8402861 741.213406,32.8402861 C736.339425,32.8402861 731.840434,33.4966164 727.716297,34.8092968 C723.592159,36.1219772 719.749271,37.8800049 716.187516,40.0834327 L711.829074,32.8402861 C715.765751,30.4493325 720.182729,28.4920617 725.080142,26.9684148 C729.977556,25.4447679 735.355256,24.6829559 741.213406,24.6829559 C744.775161,24.6829559 748.278282,25.1400431 751.722874,26.0542312 C755.167466,26.9684194 758.260523,28.3748415 761.002137,30.2735399 C763.743751,32.1722383 765.934666,34.6686377 767.574948,37.7628129 C769.21523,40.8569881 770.035358,44.5605664 770.035358,48.8736591 L770.035358,91.7699642 L760.334311,91.7699642 L760.334311,80.7997616 C758.647164,82.9094265 756.737436,84.7612157 754.605069,86.3551847 C752.472703,87.9491538 750.234923,89.2500943 747.891663,90.2580453 C745.548403,91.2659963 743.205179,92.0395285 740.861919,92.5786651 C738.518659,93.1178017 736.292595,93.3873659 734.183661,93.3873659 C725.5136,93.3873659 718.952571,91.7230997 714.500377,88.3945173 C710.048183,85.0659349 707.82212,80.2840995 707.82212,74.0488677 Z M734.183661,85.1597139 C738.214068,85.1597139 741.834351,84.5619845 745.044617,83.3665077 C748.254883,82.171031 750.984739,80.6825675 753.234269,78.9010727 C755.483798,77.1195779 757.229501,75.220908 758.471429,73.205006 C759.713356,71.1891039 760.334311,69.3607551 760.334311,67.7199046 L760.334311,61.5315852 C757.194343,61.0627708 754.183299,60.8049267 751.301089,60.7580453 C748.41888,60.7111638 745.923345,60.6877235 743.814411,60.6877235 C740.346387,60.6877235 737.007292,60.9221272 733.797026,61.3909416 C730.58676,61.859756 727.786606,62.621568 725.396481,63.6764005 C723.006356,64.7312329 721.084912,66.1024945 719.63209,67.7902265 C718.179269,69.4779584 717.45287,71.5641513 717.45287,74.0488677 C717.45287,76.8148728 718.800224,79.3581529 721.494973,81.6787843 C724.189722,83.9994157 728.419242,85.1597139 734.183661,85.1597139 Z M838.926854,91.7699642 L799.630582,91.7699642 L799.630582,83.5423123 L814.463343,83.5423123 L814.463343,8.22765197 L799.630582,8.22765197 L799.630582,0 L824.16439,0 L824.16439,83.5423123 L838.926854,83.5423123 L838.926854,91.7699642 Z" id="capital" fill="#293241"></path>
                <g id="sha">
                    <path d="M64.4627566,73.6269368 C64.4627566,77.4712151 63.5020345,80.6591053 61.5805614,83.1907032 C59.6590883,85.7223011 57.1869862,87.7381729 54.164181,89.238379 C51.1413758,90.7385852 47.7671322,91.805122 44.041349,92.4380215 C40.3155658,93.0709209 36.6718514,93.3873659 33.1100964,93.3873659 C27.1582163,93.3873659 21.2298578,92.5200722 15.3248429,90.7854589 C9.41982804,89.0508455 4.31159815,86.7771297 0,83.9642431 L4.28814411,75.6662694 C9.11525944,78.7135631 13.8720056,81.0576001 18.5585253,82.6984505 C23.2450451,84.339301 28.0955202,85.1597139 33.1100964,85.1597139 C47.5914423,85.1597139 54.8320067,81.4092548 54.8320067,73.9082241 C54.8320067,72.0798478 54.2344844,70.5913844 53.0394219,69.442789 C51.8443593,68.2941937 50.2392504,67.3565789 48.2240469,66.6299166 C46.2088434,65.9032542 43.9007671,65.3289652 41.2997486,64.9070322 C38.6987302,64.4850992 35.9688734,64.0866129 33.1100964,63.7115614 C29.454611,63.1958655 25.8226127,62.5864159 22.2139925,61.8831943 C18.6053723,61.1799726 15.3131415,60.125156 12.3372015,58.7187128 C9.36126148,57.3122695 6.97117227,55.4370399 5.16686217,53.0929678 C3.36255207,50.7488957 2.46041056,47.6547669 2.46041056,43.8104887 C2.46041056,40.5287877 3.29225533,37.692503 4.95596984,35.3015495 C6.61968434,32.9105959 8.84574782,30.9181645 11.6342271,29.3241955 C14.4227063,27.7302264 17.6915048,26.558208 21.4407206,25.8081049 C25.1899364,25.0580018 29.0796894,24.6829559 33.1100964,24.6829559 C38.8745156,24.6829559 44.02961,25.3510064 48.5755341,26.6871275 C53.1214583,28.0232486 57.2221015,29.9336387 60.8775869,32.4183552 L57.0112275,39.942789 C53.2620117,37.3174283 49.4659877,35.4773593 45.6230415,34.4225268 C41.7800953,33.3676944 37.6091553,32.8402861 33.1100964,32.8402861 C31.0948929,32.8402861 28.8571133,33.0160888 26.3966904,33.3676996 C23.9362675,33.7193105 21.6516234,34.3287601 19.5426896,35.1960667 C17.4337557,36.0633734 15.664621,37.1885112 14.2352325,38.5715137 C12.805844,39.9545163 12.0911605,41.7008238 12.0911605,43.8104887 C12.0911605,45.6388649 12.6886828,47.103888 13.8837453,48.2056019 C15.0788078,49.3073158 16.6839167,50.2214902 18.6991202,50.9481526 C20.7143237,51.6748149 23.0224001,52.249104 25.6234185,52.6710369 C28.224437,53.0929699 30.9542938,53.4914562 33.8130708,53.8665077 C37.3748258,54.3822036 40.9716757,54.9916532 44.6037285,55.6948749 C48.2357813,56.3980965 51.5397282,57.4294727 54.5156682,58.7890346 C57.4916082,60.1485964 59.8934136,62.0003856 61.7211563,64.3444577 C63.548899,66.6885298 64.4627566,69.7826586 64.4627566,73.6269368 Z" id="Path" fill="#3D5A80"></path>
                    <path d="M141.368161,91.7699642 L131.667114,91.7699642 L131.667114,51.3349225 C131.667114,45.4747423 130.401772,40.9273106 127.871052,37.6924911 C125.340331,34.4576715 121.239688,32.8402861 115.568999,32.8402861 C112.007244,32.8402861 108.78531,33.660699 105.9031,35.3015495 C103.02089,36.9423999 100.572221,39.1340745 98.5570172,41.8766389 C96.5418137,44.6192032 95.0070015,47.7602127 93.9525346,51.2997616 C92.8980676,54.8393105 92.3708421,58.5311687 92.3708421,62.375447 L92.3708421,91.7699642 L82.7400922,91.7699642 L82.7400922,0 L92.3708421,0 L92.3708421,42.6853397 C97.0104966,30.6836905 105.28208,24.6829559 117.18584,24.6829559 C133.307468,24.6829559 141.368161,33.5668559 141.368161,51.3349225 L141.368161,91.7699642 Z" id="Path" fill="#3D5A80"></path>
                    <path d="M157.747465,74.0488677 C157.747465,69.9233008 158.778484,66.4658463 160.840553,63.6764005 C162.902622,60.8869547 165.609046,58.6835599 168.959908,57.0661502 C172.310769,55.4487404 176.153658,54.2767219 180.488689,53.5500596 C184.823719,52.8233972 189.240698,52.4600715 193.739757,52.4600715 C195.473769,52.4600715 197.032014,52.4835119 198.414537,52.5303933 C199.79706,52.5772748 201.109266,52.6475959 202.351194,52.7413588 C203.593122,52.8351216 204.846747,52.9523235 206.112107,53.0929678 C207.377468,53.2336121 208.75997,53.3976947 210.259656,53.5852205 L210.259656,48.8736591 C210.259656,45.685721 209.568405,43.0603997 208.185882,40.9976162 C206.803359,38.9348328 205.104521,37.3057271 203.089317,36.1102503 C201.074114,34.9147735 198.965211,34.0709202 196.762547,33.5786651 C194.559883,33.0864099 192.685303,32.8402861 191.138752,32.8402861 C186.264771,32.8402861 181.76578,33.4966164 177.641642,34.8092968 C173.517505,36.1219772 169.674616,37.8800049 166.112861,40.0834327 L161.75442,32.8402861 C165.691096,30.4493325 170.108075,28.4920617 175.005488,26.9684148 C179.902901,25.4447679 185.280602,24.6829559 191.138752,24.6829559 C194.700507,24.6829559 198.203628,25.1400431 201.64822,26.0542312 C205.092812,26.9684194 208.185868,28.3748415 210.927482,30.2735399 C213.669096,32.1722383 215.860011,34.6686377 217.500293,37.7628129 C219.140575,40.8569881 219.960704,44.5605664 219.960704,48.8736591 L219.960704,91.7699642 L210.259656,91.7699642 L210.259656,80.7997616 C208.572509,82.9094265 206.662781,84.7612157 204.530415,86.3551847 C202.398048,87.9491538 200.160269,89.2500943 197.817009,90.2580453 C195.473749,91.2659963 193.130524,92.0395285 190.787264,92.5786651 C188.444004,93.1178017 186.217941,93.3873659 184.109007,93.3873659 C175.438946,93.3873659 168.877916,91.7230997 164.425723,88.3945173 C159.973529,85.0659349 157.747465,80.2840995 157.747465,74.0488677 Z" id="Path" fill="#3D5A80"></path>
                    <path d="M184.109007,85.1597139 C188.139414,85.1597139 191.759696,84.5619845 194.969962,83.3665077 C198.180228,82.171031 200.910085,80.6825675 203.159615,78.9010727 C205.409144,77.1195779 207.154846,75.220908 208.396774,73.205006 C209.638702,71.1891039 210.259656,69.3607551 210.259656,67.7199046 L210.259656,61.5315852 C207.119688,61.0627708 204.108644,60.8049267 201.226435,60.7580453 C198.344225,60.7111638 195.848691,60.6877235 193.739757,60.6877235 C190.271732,60.6877235 186.932637,60.9221272 183.722371,61.3909416 C180.512105,61.859756 177.711952,62.621568 175.321827,63.6764005 C172.931701,64.7312329 171.010257,66.1024945 169.557436,67.7902265 C168.104615,69.4779584 167.378215,71.5641513 167.378215,74.0488677 C167.378215,76.8148728 168.72557,79.3581529 171.420318,81.6787843 C174.115067,83.9994157 178.344588,85.1597139 184.109007,85.1597139 Z" id="Path" fill="#FFFFFF"></path>
                </g>
                <g id="Hash" transform="translate(246.000000, 38.000000)">
                    <g>
                        <rect id="bottom--under" fill="#98C1D9" x="0" y="24.75" width="44" height="9.625"></rect>
                        <rect id="left" fill="#3D5A80" x="8.25" y="0" width="9.625" height="44"></rect>
                        <rect id="top" fill="#DDD7F8" x="0" y="9.625" width="44" height="9.625"></rect>
                        <rect id="right" fill="#293241" x="25.4375" y="0" width="9.625" height="44"></rect>
                        <rect id="bottom--over" fill="#98C1D9" x="23.375" y="24.75" width="20.625" height="9.625"></rect>
                    </g>
                </g>
            </g>
        </g>
    </g>
</svg>